<svg width="55" height="46" viewBox="0 0 55 46" fill="none" xmlns="http://www.w3.org/2000/svg">
<rect width="55" height="46" fill="white"/>
<g id="Home New">
<rect width="1440" height="958" transform="translate(-693 -3833)" fill="#F8F6F5"/>
<g id="Body">
<g id="testimonial">
<rect width="1440" height="736" transform="translate(-693 -196)" fill="white"/>
<g id="content">
<g id="content_2">
<path id="&#226;&#128;&#156;" d="M13.3483 24.8699C14.8379 24.4959 16.2655 24.5583 17.631 25.0569C18.9966 25.4309 20.1759 26.1165 21.169 27.1138C22.2862 28.1111 23.1552 29.2954 23.7759 30.6667C24.5207 32.0379 24.8931 33.5339 24.8931 35.1545C24.8931 38.271 23.7759 40.8889 21.5414 43.0081C19.3069 45.0027 16.5759 46 13.3483 46C9.00345 46 5.77586 44.4417 3.66552 41.3252C1.55517 38.084 0.5 33.9702 0.5 28.9837C0.5 22.252 2.05172 16.393 5.15517 11.4065C8.38276 6.29539 13.3483 2.49322 20.0517 0L22.6586 3.55285C17.8172 5.79675 14.2172 8.60163 11.8586 11.9675C9.5 15.3333 8.32069 19.0732 8.32069 23.187C8.32069 24.5583 8.56896 25.3686 9.06552 25.6179C9.68621 25.8672 10.369 25.8672 11.1138 25.6179L13.3483 24.8699ZM43.1414 24.8699C45.9966 24.2466 48.6034 24.9946 50.9621 27.1138C53.3207 29.2331 54.5 31.9133 54.5 35.1545C54.5 38.271 53.3828 40.8889 51.1483 43.0081C49.0379 45.0027 46.369 46 43.1414 46C38.7966 46 35.5069 44.4417 33.2724 41.3252C31.1621 38.084 30.1069 33.9702 30.1069 28.9837C30.1069 22.252 31.7207 16.393 34.9483 11.4065C38.1759 6.29539 43.1414 2.49322 49.8448 0L52.4517 3.55285C47.6103 5.79675 43.9483 8.60163 41.4655 11.9675C39.1069 15.3333 37.9276 19.0732 37.9276 23.187C37.9276 24.5583 38.1759 25.3686 38.6724 25.6179C39.2931 25.8672 40.0379 25.8672 40.9069 25.6179L43.1414 24.8699Z" fill="#1E1C1C"/>
</g>
</g>
</g>
</g>
</g>
</svg>
