<svg width="22" height="18" viewBox="0 0 22 18" fill="none" xmlns="http://www.w3.org/2000/svg">
<path id="Vector" d="M11.4318 0.5C12.3295 0.5 13.2504 0.523375 14.1429 0.561625L15.1971 0.612625L16.2061 0.673188L17.1511 0.738L18.0142 0.806C18.9509 0.878545 19.8322 1.28301 20.5033 1.94823C21.1743 2.61345 21.592 3.49682 21.6829 4.44294L21.7249 4.8945L21.8037 5.86137C21.8772 6.86331 21.9318 7.95556 21.9318 9C21.9318 10.0444 21.8772 11.1367 21.8037 12.1386L21.7249 13.1055C21.7113 13.2606 21.6976 13.4104 21.6829 13.5571C21.592 14.5033 21.1741 15.3868 20.5029 16.0521C19.8316 16.7173 18.95 17.1217 18.0132 17.194L17.1522 17.2609L16.2072 17.3268L15.1971 17.3874L14.1429 17.4384C13.2397 17.4781 12.3358 17.4986 11.4318 17.5C10.5277 17.4986 9.62384 17.4781 8.72066 17.4384L7.66646 17.3874L6.65741 17.3268L5.71241 17.2609L4.84931 17.194C3.91266 17.1215 3.03129 16.717 2.36026 16.0518C1.68923 15.3865 1.27152 14.5032 1.18061 13.5571L1.13861 13.1055L1.05986 12.1386C0.979577 11.0943 0.936849 10.0474 0.931763 9C0.931763 7.95556 0.986363 6.86331 1.05986 5.86137L1.13861 4.8945C1.15226 4.73937 1.16591 4.58956 1.18061 4.44294C1.27148 3.49699 1.68904 2.61375 2.35986 1.94855C3.03068 1.28335 3.9118 0.878784 4.84826 0.806L5.71031 0.738L6.65531 0.673188L7.66541 0.612625L8.71961 0.561625C9.62314 0.521923 10.5274 0.501376 11.4318 0.5ZM11.4318 2.625C10.5655 2.625 9.67406 2.64838 8.80676 2.6845L7.77986 2.73444L6.79391 2.79288L5.86781 2.85662L5.01941 2.92356C4.57351 2.95558 4.15321 3.14631 3.83301 3.46196C3.51281 3.77761 3.3134 4.19778 3.27011 4.648C3.14726 5.93256 3.03176 7.53162 3.03176 9C3.03176 10.4684 3.14726 12.0674 3.27011 13.352C3.35936 14.2785 4.08596 14.9989 5.01941 15.0764L5.86781 15.1423L6.79391 15.2061L7.77986 15.2656L8.80676 15.3155C9.67406 15.3516 10.5655 15.375 11.4318 15.375C12.298 15.375 13.1895 15.3516 14.0568 15.3155L15.0837 15.2656L16.0696 15.2071L16.9957 15.1434L17.8441 15.0764C18.29 15.0444 18.7103 14.8537 19.0305 14.538C19.3507 14.2224 19.5501 13.8022 19.5934 13.352C19.7163 12.0674 19.8318 10.4684 19.8318 9C19.8318 7.53162 19.7163 5.93256 19.5934 4.648C19.5501 4.19778 19.3507 3.77761 19.0305 3.46196C18.7103 3.14631 18.29 2.95558 17.8441 2.92356L16.9957 2.85769L16.0696 2.79394L15.0837 2.73444L14.0568 2.6845C13.1823 2.64643 12.3071 2.62659 11.4318 2.625ZM9.33176 6.42344C9.33169 6.31959 9.3567 6.2173 9.4046 6.12546C9.4525 6.03362 9.52184 5.95502 9.6066 5.89647C9.69137 5.83793 9.78898 5.80123 9.89095 5.78956C9.99292 5.77788 10.0962 5.7916 10.1917 5.8295L10.2768 5.872L14.6868 8.4475C14.7746 8.49877 14.8489 8.57074 14.9033 8.65728C14.9578 8.74382 14.9908 8.84238 14.9996 8.94459C15.0083 9.0468 14.9926 9.14964 14.9536 9.24438C14.9147 9.33911 14.8538 9.42294 14.776 9.48875L14.6868 9.5525L10.2768 12.1291C10.1879 12.1811 10.0878 12.2104 9.98517 12.2144C9.88255 12.2184 9.78053 12.1969 9.68798 12.1519C9.59544 12.1068 9.51517 12.0396 9.45419 11.956C9.3932 11.8724 9.35333 11.7749 9.33806 11.6722L9.33176 11.5766V6.42344Z" fill="#F8F6F5"/>
</svg>
