<svg width="24" height="20" viewBox="0 0 24 20" fill="none" xmlns="http://www.w3.org/2000/svg">
<path id="Vector" d="M12 0.285645C13.026 0.285645 14.0784 0.312359 15.0984 0.356073L16.3032 0.414359L17.4564 0.483573L18.5364 0.557645L19.5228 0.635359C20.5933 0.718268 21.6005 1.18051 22.3674 1.94076C23.1343 2.70102 23.6117 3.71059 23.7156 4.79186L23.7636 5.30793L23.8536 6.41293C23.9376 7.558 24 8.80629 24 9.99993C24 11.1936 23.9376 12.4419 23.8536 13.5869L23.7636 14.6919C23.748 14.8692 23.7324 15.0404 23.7156 15.208C23.6117 16.2895 23.1341 17.2992 22.367 18.0595C21.5998 18.8197 20.5923 19.2819 19.5216 19.3645L18.5376 19.441L17.4576 19.5163L16.3032 19.5855L15.0984 19.6438C14.0662 19.6892 13.0332 19.7127 12 19.7142C10.9668 19.7127 9.9338 19.6892 8.9016 19.6438L7.6968 19.5855L6.5436 19.5163L5.4636 19.441L4.4772 19.3645C3.40674 19.2816 2.39946 18.8194 1.63257 18.0591C0.865672 17.2988 0.388289 16.2893 0.2844 15.208L0.2364 14.6919L0.1464 13.5869C0.0546451 12.3935 0.00581282 11.197 0 9.99993C0 8.80629 0.0624 7.558 0.1464 6.41293L0.2364 5.30793C0.252 5.13064 0.2676 4.95943 0.2844 4.79186C0.388249 3.71078 0.86546 2.70136 1.63211 1.94113C2.39876 1.1809 3.40575 0.71854 4.476 0.635359L5.4612 0.557645L6.5412 0.483573L7.6956 0.414359L8.9004 0.356073C9.933 0.310699 10.9664 0.287217 12 0.285645ZM12 2.71422C11.01 2.71422 9.9912 2.74093 9 2.78222L7.8264 2.83929L6.6996 2.90607L5.6412 2.97893L4.6716 3.05543C4.162 3.09202 3.68165 3.31 3.31571 3.67074C2.94977 4.03148 2.72187 4.51168 2.6724 5.02622C2.532 6.49429 2.4 8.32179 2.4 9.99993C2.4 11.6781 2.532 13.5056 2.6724 14.9736C2.7744 16.0325 3.6048 16.8558 4.6716 16.9444L5.6412 17.0197L6.6996 17.0926L7.8264 17.1606L9 17.2176C9.9912 17.2589 11.01 17.2856 12 17.2856C12.99 17.2856 14.0088 17.2589 15 17.2176L16.1736 17.1606L17.3004 17.0938L18.3588 17.0209L19.3284 16.9444C19.838 16.9078 20.3183 16.6899 20.6843 16.3291C21.0502 15.9684 21.2781 15.4882 21.3276 14.9736C21.468 13.5056 21.6 11.6781 21.6 9.99993C21.6 8.32179 21.468 6.49429 21.3276 5.02622C21.2781 4.51168 21.0502 4.03148 20.6843 3.67074C20.3183 3.31 19.838 3.09202 19.3284 3.05543L18.3588 2.98014L17.3004 2.90729L16.1736 2.83929L15 2.78222C14.0006 2.7387 13.0004 2.71603 12 2.71422ZM9.6 7.05529C9.59992 6.93661 9.6285 6.81971 9.68324 6.71475C9.73798 6.60979 9.81723 6.51995 9.91411 6.45304C10.011 6.38614 10.1225 6.34419 10.2391 6.33085C10.3556 6.31751 10.4736 6.33318 10.5828 6.3765L10.68 6.42507L15.72 9.3685C15.8204 9.4271 15.9053 9.50934 15.9675 9.60825C16.0297 9.70715 16.0675 9.81979 16.0775 9.9366C16.0875 10.0534 16.0695 10.1709 16.025 10.2792C15.9805 10.3875 15.9109 10.4833 15.822 10.5585L15.72 10.6314L10.68 13.576C10.5784 13.6355 10.464 13.669 10.3468 13.6735C10.2295 13.6781 10.1129 13.6536 10.0071 13.6021C9.90134 13.5506 9.80962 13.4737 9.73991 13.3782C9.67021 13.2826 9.62465 13.1713 9.6072 13.0539L9.6 12.9446V7.05529Z" fill="#F8F6F5"/>
</svg>
