<svg width="24" height="26" viewBox="0 0 24 26" fill="none" xmlns="http://www.w3.org/2000/svg">
<path id="Vector" d="M20.5025 4.44932C19.3968 3.33244 18.0798 2.44691 16.6283 1.84435C15.1768 1.2418 13.6198 0.934294 12.0482 0.939769C5.46332 0.939769 0.0964826 6.3066 0.0964826 12.8915C0.0964826 15.0021 0.651256 17.0523 1.68844 18.8614L0 25.0604L6.33166 23.396C8.0804 24.3488 10.0462 24.8553 12.0482 24.8553C18.6332 24.8553 24 19.4885 24 12.9036C24 9.70761 22.7578 6.70459 20.5025 4.44932ZM12.0482 22.8292C10.2633 22.8292 8.51457 22.3468 6.98291 21.4423L6.6211 21.2252L2.85829 22.2141L3.8593 18.5478L3.61809 18.1739C2.62643 16.5904 2.09987 14.76 2.09849 12.8915C2.09849 7.41615 6.5608 2.95384 12.0362 2.95384C14.6894 2.95384 17.1859 3.99103 19.0553 5.87243C19.9809 6.79379 20.7144 7.88971 21.2133 9.09666C21.7123 10.3036 21.9667 11.5976 21.9618 12.9036C21.9859 18.379 17.5236 22.8292 12.0482 22.8292ZM17.4995 15.4001C17.198 15.2553 15.7266 14.5317 15.4613 14.4232C15.1839 14.3267 14.991 14.2785 14.7859 14.5679C14.5809 14.8694 14.0141 15.5448 13.8452 15.7378C13.6764 15.9428 13.4955 15.9669 13.194 15.8101C12.8925 15.6654 11.9276 15.3398 10.794 14.3267C9.90151 13.5307 9.31055 12.5538 9.12965 12.2523C8.9608 11.9508 9.10553 11.794 9.26231 11.6373C9.39497 11.5046 9.56382 11.2875 9.70854 11.1187C9.85327 10.9498 9.91357 10.8172 10.01 10.6242C10.1065 10.4192 10.0583 10.2503 9.98593 10.1056C9.91357 9.96087 9.31055 8.48952 9.06935 7.8865C8.82814 7.30761 8.57487 7.37997 8.39397 7.36791H7.81507C7.61005 7.36791 7.29648 7.44027 7.01909 7.74178C6.75377 8.04329 5.98191 8.7669 5.98191 10.2383C5.98191 11.7096 7.05528 13.1327 7.2 13.3257C7.34472 13.5307 9.31055 16.5458 12.3015 17.8362C13.0131 18.1498 13.5678 18.3307 14.002 18.4634C14.7136 18.6925 15.3648 18.6563 15.8834 18.584C16.4623 18.4996 17.6563 17.8604 17.8975 17.1609C18.1508 16.4614 18.1508 15.8704 18.0663 15.7378C17.9819 15.6051 17.801 15.5448 17.4995 15.4001Z" fill="#F8F6F5"/>
</svg>
